<?xml version="1.0" standalone="no"?>
<!DOCTYPE svg PUBLIC "-//W3C//DTD SVG 20010904//EN"
 "http://www.w3.org/TR/2001/REC-SVG-20010904/DTD/svg10.dtd">
<svg version="1.0" xmlns="http://www.w3.org/2000/svg"
 width="171.000000pt" height="68.000000pt" viewBox="0 0 171.000000 68.000000"
 preserveAspectRatio="xMidYMid meet">

<g transform="translate(0.000000,68.000000) scale(0.100000,-0.100000)"
fill="#000000" stroke="none">
<path d="M65 620 c-3 -6 5 -10 18 -10 14 0 28 -7 31 -16 3 -9 6 -82 6 -163 0
-154 -5 -175 -45 -184 -11 -3 48 -5 132 -6 l151 -1 17 51 c20 60 16 71 -9 24
-14 -25 -30 -38 -55 -45 -49 -14 -114 -13 -129 2 -8 8 -12 59 -12 163 0 156 5
175 42 175 10 0 18 5 18 10 0 13 -157 13 -165 0z"/>
<path d="M320 620 c0 -5 6 -10 13 -10 25 0 43 -32 118 -207 41 -95 76 -173 79
-173 3 0 40 82 81 182 54 133 81 186 97 194 12 6 19 14 15 17 -10 11 -113 8
-113 -3 0 -5 7 -10 15 -10 31 0 26 -33 -25 -160 -29 -72 -54 -130 -55 -128 -1
2 -26 57 -54 122 -56 133 -63 166 -30 166 11 0 17 5 14 10 -3 6 -40 10 -81 10
-43 0 -74 -4 -74 -10z"/>
<path d="M740 621 c0 -5 10 -11 23 -13 22 -3 22 -4 22 -173 l0 -169 -25 -13
c-22 -11 -18 -13 45 -12 45 1 61 3 45 8 l-25 7 -2 149 -3 150 72 -157 c40 -87
75 -158 78 -158 3 0 38 71 77 158 l73 157 0 -147 0 -146 -27 -10 c-23 -8 -12
-10 57 -10 69 0 80 1 57 10 l-27 10 2 171 c3 170 3 172 26 175 12 2 22 8 22
13 0 14 -96 11 -107 -3 -5 -7 -36 -71 -68 -143 -32 -72 -62 -133 -65 -138 -3
-4 -35 55 -70 130 -35 76 -68 144 -73 151 -11 14 -107 17 -107 3z"/>
<path d="M1250 621 c0 -5 10 -11 23 -13 22 -3 22 -6 25 -167 3 -171 -1 -186
-41 -194 -12 -2 19 -4 68 -4 50 0 80 2 67 4 -33 6 -43 35 -40 111 l3 67 88 3
87 3 0 -85 c0 -83 0 -85 -27 -94 -23 -8 -12 -10 57 -10 69 0 80 1 57 10 l-27
10 2 171 c3 170 3 172 26 175 12 2 22 8 22 13 0 5 -36 9 -80 9 -44 0 -80 -4
-80 -9 0 -5 10 -11 23 -13 20 -3 22 -9 25 -80 l3 -78 -91 0 -90 0 0 61 c0 69
12 99 40 99 11 0 20 5 20 10 0 6 -33 10 -80 10 -44 0 -80 -4 -80 -9z"/>
<path d="M515 130 c-14 -27 -14 -32 3 -59 l18 -29 17 30 c15 27 15 32 2 59 -9
16 -18 29 -20 29 -2 0 -11 -13 -20 -30z"/>
</g>
</svg>
